<svg fill="#000000" xmlns="http://www.w3.org/2000/svg"  viewBox="0 0 100 100" width="400px" height="400px"><path d="M 67.984375 26 A 1.0001 1.0001 0 0 0 67.292969 26.292969 L 60.292969 33.292969 A 1.0001 1.0001 0 0 0 60.292969 34.707031 L 69.585938 44 L 9 44 A 1.0001 1.0001 0 0 0 8 45 L 8 55 A 1.0001 1.0001 0 0 0 9 56 L 69.585938 56 L 60.292969 65.292969 A 1.0001 1.0001 0 0 0 60.292969 66.707031 L 67.292969 73.707031 A 1.0001 1.0001 0 0 0 68.707031 73.707031 L 84.707031 57.707031 L 91.707031 50.707031 A 1.0001 1.0001 0 0 0 91.707031 49.292969 L 84.707031 42.292969 L 68.707031 26.292969 A 1.0001 1.0001 0 0 0 67.984375 26 z M 68 28.414062 L 83.292969 43.707031 L 89.585938 50 L 83.292969 56.292969 L 68 71.585938 L 62.414062 66 L 72.707031 55.707031 A 1.0001 1.0001 0 0 0 72 54 L 10 54 L 10 46 L 72 46 A 1.0001 1.0001 0 0 0 72.707031 44.292969 L 62.414062 34 L 68 28.414062 z M 68.994141 33.994141 A 0.50005 0.50005 0 0 0 68.646484 34.853516 L 73.646484 39.853516 A 0.50005 0.50005 0 1 0 74.353516 39.146484 L 69.353516 34.146484 A 0.50005 0.50005 0 0 0 68.994141 33.994141 z M 77.994141 42.994141 A 0.50005 0.50005 0 0 0 77.646484 43.853516 L 80.146484 46.353516 A 0.50005 0.50005 0 1 0 80.853516 45.646484 L 78.353516 43.146484 A 0.50005 0.50005 0 0 0 77.994141 42.994141 z M 82.994141 47.994141 A 0.50005 0.50005 0 0 0 82.646484 48.853516 L 84.146484 50.353516 A 0.50005 0.50005 0 1 0 84.853516 49.646484 L 83.353516 48.146484 A 0.50005 0.50005 0 0 0 82.994141 47.994141 z M 79.990234 53.996094 A 0.50005 0.50005 0 0 0 79.646484 54.146484 L 68.646484 65.146484 A 0.50005 0.50005 0 1 0 69.353516 65.853516 L 80.353516 54.853516 A 0.50005 0.50005 0 0 0 79.990234 53.996094 z"/></svg>