<svg fill="#000000" xmlns="http://www.w3.org/2000/svg"  viewBox="0 0 32 32" width="32px" height="32px"><path d="M 16 4.9160156 L 3 10.333984 L 3 27 L 29 27 L 29 26 L 29 10.333984 L 16 4.9160156 z M 16 7.0839844 L 27 11.666016 L 27 25 L 5 25 L 5 11.666016 L 16 7.0839844 z M 12 12 L 12 22 L 14 22 L 14 18 L 18 18 L 18 22 L 20 22 L 20 12 L 18 12 L 18 16 L 14 16 L 14 12 L 12 12 z M 9 13 L 9 16 L 7 16 L 7 18 L 9 18 L 9 21 L 11 21 L 11 13 L 9 13 z M 21 13 L 21 21 L 23 21 L 23 18 L 25 18 L 25 16 L 23 16 L 23 13 L 21 13 z"/></svg>