<?xml version="1.0" standalone="no"?>
<!DOCTYPE svg PUBLIC "-//W3C//DTD SVG 20010904//EN"
 "http://www.w3.org/TR/2001/REC-SVG-20010904/DTD/svg10.dtd">
<svg version="1.0" xmlns="http://www.w3.org/2000/svg"
 width="64.000000pt" height="64.000000pt" viewBox="0 0 64.000000 64.000000"
 preserveAspectRatio="xMidYMid meet">

<g transform="translate(0.000000,64.000000) scale(0.100000,-0.100000)"
fill="#000000" stroke="none">
<path d="M26 475 c-23 -24 -27 -65 -24 -270 3 -161 5 -190 18 -190 13 0 16 33
20 220 l5 220 275 0 275 0 5 -220 c4 -187 7 -220 20 -220 13 0 15 29 18 190 3
205 -1 246 -24 270 -23 23 -565 23 -588 0z"/>
<path d="M65 417 c-3 -7 -4 -100 -3 -207 3 -163 5 -195 18 -195 8 0 17 10 20
23 l5 24 24 -26 c32 -34 55 -33 83 4 12 16 26 30 31 30 4 0 20 -13 34 -30 13
-16 33 -30 44 -30 10 0 28 13 41 30 12 17 26 30 31 30 4 0 20 -13 34 -30 30
-37 52 -38 84 -4 l24 26 5 -24 c3 -13 12 -23 20 -23 13 0 15 32 15 205 l0 205
-253 3 c-200 2 -254 0 -257 -11z m133 -39 c-21 -31 -33 -32 -52 -3 l-16 25 41
0 c40 0 41 -1 27 -22z m152 -3 c-13 -14 -27 -25 -31 -25 -4 0 -14 11 -23 25
l-16 25 47 0 46 0 -23 -25z m150 0 c-13 -14 -27 -25 -31 -25 -4 0 -14 11 -23
25 l-16 25 47 0 46 0 -23 -25z m-222 -72 c-27 -29 -36 -29 -65 -1 l-23 22 27
28 27 28 28 -27 28 -27 -22 -23z m145 -5 l-27 -28 -28 27 -28 27 27 28 27 28
28 -27 28 -27 -27 -28z m-295 49 l22 -23 -25 -24 -25 -23 0 46 c0 26 1 47 3
47 2 0 13 -10 25 -23z m412 -24 l0 -46 -25 23 -25 24 22 23 c12 13 23 23 25
23 2 0 3 -21 3 -47z m-340 -48 l24 -26 -27 -27 -27 -27 -27 27 -27 27 24 26
c13 14 26 25 30 25 4 0 17 -11 30 -25z m150 0 l24 -26 -27 -27 -27 -27 -27 27
-27 27 24 26 c13 14 26 25 30 25 4 0 17 -11 30 -25z m150 0 l24 -26 -27 -27
-27 -27 -27 27 -27 27 24 26 c13 14 26 25 30 25 4 0 17 -11 30 -25z m-227
-127 l-27 -28 -28 27 -28 27 27 28 27 28 28 -27 28 -27 -27 -28z m150 0 l-27
-28 -28 27 -28 27 27 28 27 28 28 -27 28 -27 -27 -28z m-295 49 l22 -23 -25
-24 -25 -23 0 46 c0 26 1 47 3 47 2 0 13 -10 25 -23z m412 -24 l0 -46 -25 23
-25 24 22 23 c12 13 23 23 25 23 2 0 3 -21 3 -47z m-340 -48 l24 -26 -27 -27
-27 -27 -25 26 -26 25 21 27 c26 33 31 33 60 2z m150 0 l24 -26 -27 -27 -27
-27 -27 27 -27 27 24 26 c13 14 26 25 30 25 4 0 17 -11 30 -25z m150 -2 l21
-27 -26 -25 -25 -26 -27 27 -27 27 24 26 c29 31 34 31 60 -2z"/>
</g>
</svg>
