<?xml version="1.0" encoding="UTF-8"?><svg version="1.1" id="Capa_1" xmlns="http://www.w3.org/2000/svg" xmlns:xlink="http://www.w3.org/1999/xlink" x="0px" y="0px" width="402.3px" height="291.5px" viewBox="0 0 402.3 291.5" style="enable-background:new 0 0 402.3 291.5;" xml:space="preserve">

<g>
	<path d="M395.7,17.7c-0.2-2.5-1.9-4.2-4.4-4.4C291,4.1,190.3-0.4,89.6,0C61.1,0.1,32.7,0.7,4.3,1.5
		C1.2,1.6-0.3,4.2,0.1,7.1c1.3,9,2.3,18.1,3.2,27.2C3,91,3,147.7,3.4,204.4c0.1,15.5,0.1,30.9,0.4,46.4c0.2,10.2,1.8,20.8,12,25.5
		c4.7,2.2,10,2.5,15,3c8.1,0.9,16.2,1.7,24.4,2.5c15.3,1.5,30.6,2.8,45.9,4c61.3,4.6,122.8,6.4,184.2,5.4
		c15.4-0.3,30.7-0.7,46.1-1.3c14.2-0.6,28.9-0.4,43-2.4c10.3-1.5,18.9-6.5,21.2-17.2c2.9-13.5,2.1-28.6,2.6-42.3
		C400.9,157.9,400,87.7,395.7,17.7z" style="fill:#60B683;"/>
	<g>
		<path d="M53.8,94.4C53,94,52.2,93.9,51.4,94c-0.1-4.9-0.2-9.8-0.3-14.8c-0.1-2.6-2-4.1-4.4-4.4
			c-13.9-1.6-27.9-2.1-41.9-1.5c-5.6,0.2-5.6,9,0,8.8c12.6-0.5,25.1-0.2,37.6,1.1c0.7,30,0.8,60,0.3,90c-12.4-0.2-24.7,0.7-37,2.6
			c-5.6,0.8-3.2,9.3,2.3,8.4c12.9-1.9,25.8-2.6,38.8-2.2c3.5,0.1,4.8-3.2,4-5.8c0.4-0.6,0.6-1.3,0.6-2.2c0.1-4.4,0.1-8.9,0.2-13.3
			c0.6,0,1.2,0,1.8-0.3C79.9,150.5,78.3,105.6,53.8,94.4z M51.8,151.7c0.1-16.2,0.1-32.5-0.2-48.7c8.2,4.8,12.1,13.3,12.3,22.9
			C64,134.9,60.8,147.8,51.8,151.7z" style="fill:#ECECEC;"/>
		<path d="M26.2,102.8c-0.5-1.4-1.5-2.8-3.1-3.1c-5.4-1-11.5,0.2-16.9,0.6c-5.6,0.4-5.6,9.2,0,8.8
			c3.6-0.3,8.3-1.3,12.3-1.1c1.3,6.6,0.2,15,0,21.2c-0.2,6.4-0.6,12.8-1.2,19.2c-4.2,0-8.5,0.1-12.7,0.4c-5.6,0.4-5.6,9.1,0,8.8
			c5.6-0.4,11.1-0.5,16.7-0.4c2.5,0.1,4.1-2.1,4.4-4.4c0.9-8.8,1.5-17.6,1.7-26.4C27.4,119.1,28.6,109.7,26.2,102.8z" style="fill:#ECECEC;"/>
	</g>
	<g>
		<path d="M349.2,160.5c0.7,0.3,1.3,0.3,1.8,0.3c0,4.4,0.1,8.9,0.2,13.3c0,0.9,0.3,1.6,0.6,2.2c-0.8,2.6,0.5,5.9,4,5.8
			c13-0.4,25.9,0.2,38.8,2.2c5.5,0.8,7.9-7.6,2.3-8.4c-12.3-1.8-24.6-2.7-37-2.6c-0.5-30-0.4-60,0.3-90c12.5-1.2,25-1.6,37.6-1.1
			c5.6,0.2,5.6-8.5,0-8.8c-14-0.6-27.9-0.1-41.9,1.5c-2.4,0.3-4.3,1.8-4.4,4.4c-0.1,4.9-0.2,9.8-0.3,14.8c-0.8-0.1-1.6,0-2.4,0.4
			C324.4,105.6,322.8,150.5,349.2,160.5z M338.8,125.9c0.1-9.6,4.1-18.1,12.3-22.9c-0.2,16.2-0.3,32.5-0.2,48.7
			C341.9,147.8,338.7,134.9,338.8,125.9z" style="fill:#ECECEC;"/>
		<path d="M376.5,102.8c0.5-1.4,1.5-2.8,3.1-3.1c5.4-1,11.5,0.2,16.9,0.6c5.6,0.4,5.6,9.2,0,8.8
			c-3.6-0.3-8.3-1.3-12.3-1.1c-1.3,6.6-0.2,15,0,21.2c0.2,6.4,0.6,12.8,1.2,19.2c4.2,0,8.5,0.1,12.7,0.4c5.6,0.4,5.6,9.1,0,8.8
			c-5.6-0.4-11.1-0.5-16.7-0.4c-2.5,0.1-4.1-2.1-4.4-4.4c-0.9-8.8-1.5-17.6-1.7-26.4C375.3,119.1,374.1,109.7,376.5,102.8z" style="fill:#ECECEC;"/>
	</g>
	<path d="M206.6,97.2c-1.6-30-3-59.9-4.4-89.9c-0.2-5.6-9-5.6-8.8,0c1.3,29.8,2.8,59.5,4.3,89.2
		c-8.4,0.8-16.9,2.6-23.7,7.9c-8.2,6.4-10.9,16.2-11.6,26.2c-0.7,10.4,1,18.9,7.6,27.1c6.5,8.1,15.8,14.2,26.1,16c2,0.4,4,0.5,6,0.6
		c2.2,36.8,4.7,73.6,7.3,110.3c0.4,5.6,9.2,5.6,8.8,0c-2.7-37.1-5.1-74.2-7.4-111.3c13.8-3.2,25-14.4,26-29.6
		C238.3,123.5,227.8,100.5,206.6,97.2z M194.4,164.4c-7-2.2-13.1-6.7-17.7-12.4c-5.2-6.5-6-13.2-5.5-21.3c0.6-8,2.7-16,9.8-20.5
		c5.1-3.2,11.2-4.4,17.2-4.9c1.1,20.1,2.2,40.2,3.4,60.3C199.3,165.5,196.8,165.1,194.4,164.4z M228.2,142.6
		c-0.5,11.2-8.2,19.1-17.9,21.9c-1.2-19.5-2.3-38.9-3.3-58.4C222.3,109.6,228.9,128,228.2,142.6z" style="fill:#ECECEC;"/>
</g>
</svg>